<svg width="16" height="13" viewBox="0 0 16 13" fill="none" xmlns="http://www.w3.org/2000/svg">
<path d="M14.5 2.99854V9.99854C14.5 10.827 13.8284 11.4985 13 11.4985H3C2.17157 11.4985 1.5 10.827 1.5 9.99854V2.99853M14.5 2.99854C14.5 2.17011 13.8284 1.49854 13 1.49854H3C2.17157 1.49854 1.5 2.17011 1.5 2.99853M14.5 2.99854V3.16034C14.5 3.68123 14.2298 4.16483 13.7861 4.43783L8.78615 7.51475C8.30404 7.81144 7.69596 7.81144 7.21385 7.51475L2.21385 4.43783C1.77023 4.16483 1.5 3.68123 1.5 3.16034V2.99853" stroke="#0F172A" stroke-width="1.5" stroke-linecap="round" stroke-linejoin="round"/>
</svg>
