<svg width="14" height="14" viewBox="0 0 14 14" fill="none" xmlns="http://www.w3.org/2000/svg">
<g opacity="0.5">
<path fill-rule="evenodd" clip-rule="evenodd" d="M4.18576 2.625C3.36885 2.625 2.63681 3.12949 2.34599 3.89288L1.00398 7.41567C0.918708 7.6395 0.875 7.87701 0.875 8.11653V9.40625C0.875 10.4936 1.75644 11.375 2.84375 11.375H11.1563C12.2436 11.375 13.125 10.4936 13.125 9.40625V8.11653C13.125 7.87701 13.0813 7.6395 12.996 7.41567L11.654 3.89288C11.3632 3.12949 10.6312 2.625 9.81424 2.625H4.18576ZM3.57251 4.36013C3.66944 4.10566 3.91346 3.9375 4.18576 3.9375H9.81424C10.0865 3.9375 10.3306 4.10566 10.4275 4.36013L11.7665 7.875H9.65579C9.36323 7.875 9.09002 8.02121 8.92774 8.26464L8.57226 8.79786C8.40998 9.04129 8.13677 9.1875 7.84421 9.1875H6.15579C5.86323 9.1875 5.59002 9.04129 5.42774 8.79786L5.07226 8.26464C4.90998 8.02121 4.63677 7.875 4.34421 7.875H2.23351L3.57251 4.36013Z" fill="#262A35"/>
</g>
</svg>
