<svg width="14" height="14" viewBox="0 0 14 14" fill="none" xmlns="http://www.w3.org/2000/svg">
<g opacity="0.5">
<path d="M11.9148 4.40407C12.1641 4.154 11.8479 3.4319 11.2072 2.79124C10.5741 2.158 9.86376 1.8432 9.60552 2.07726L9.60049 2.07244L6.05162 5.26051C5.39549 4.68851 4.4033 4.70802 3.77829 5.33272C3.6731 5.4381 3.61381 5.58091 3.61381 5.72989C3.61381 5.87889 3.67308 6.02175 3.77829 6.12694L5.38828 7.73713L2.07971 11.4725C1.97454 11.591 1.97222 11.772 2.08002 11.8935C2.19624 12.0243 2.39661 12.0364 2.52775 11.9199L6.25763 8.60687L6.41779 8.76685L7.24724 9.59652L7.86698 10.2163C7.97219 10.3214 8.11497 10.3805 8.2638 10.3805C8.41249 10.3805 8.55537 10.3213 8.66052 10.2159C9.28486 9.59119 9.30453 8.59841 8.73282 7.94225L11.9035 4.41071C11.9067 4.40789 11.9118 4.40726 11.9148 4.40407Z" fill="#262A35"/>
</g>
</svg>
