<svg width="16" height="15" viewBox="0 0 16 15" fill="none" xmlns="http://www.w3.org/2000/svg">
<path fill-rule="evenodd" clip-rule="evenodd" d="M1 2.49854C1 1.39397 1.89543 0.498535 3 0.498535H3.91442C4.488 0.498535 4.98798 0.888907 5.1271 1.44537L5.86429 4.39416C5.98627 4.88207 5.80396 5.39557 5.40162 5.69732L4.5392 6.34413C4.44965 6.4113 4.43018 6.50965 4.45533 6.57833C5.21234 8.64486 6.85368 10.2862 8.92021 11.0432C8.98888 11.0684 9.08724 11.0489 9.1544 10.9593L9.80121 10.0969C10.103 9.69458 10.6165 9.51226 11.1044 9.63424L14.0532 10.3714C14.6096 10.5106 15 11.0105 15 11.5841V12.4985C15 13.6031 14.1046 14.4985 13 14.4985H11.5C5.70101 14.4985 1 9.79753 1 3.99854V2.49854Z" fill="#262A35" stroke="#F0F0F0"/>
</svg>
